<svg xmlns="http://www.w3.org/2000/svg" width="600" height="400" viewBox="0 0 600 400" fill="none">
  <!-- Background -->
  <rect width="600" height="400" rx="20" fill="#F5F7FA"/>
  
  <!-- Hospital Building -->
  <rect x="60" y="150" width="180" height="200" rx="5" fill="#E1E8EF"/>
  <rect x="100" y="180" width="30" height="40" rx="2" fill="#97ADCE"/>
  <rect x="170" y="180" width="30" height="40" rx="2" fill="#97ADCE"/>
  <rect x="100" y="250" width="30" height="40" rx="2" fill="#97ADCE"/>
  <rect x="170" y="250" width="30" height="40" rx="2" fill="#97ADCE"/>
  <rect x="120" y="320" width="60" height="30" rx="2" fill="#97ADCE"/>
  
  <!-- Hospital Roof -->
  <polygon points="50,150 150,100 250,150" fill="#4285F4"/>
  <rect x="140" y="90" width="20" height="30" fill="#E1E8EF"/>
  
  <!-- Doctor Figure -->
  <circle cx="390" cy="180" r="50" fill="#4285F4"/>
  <rect x="365" y="230" width="50" height="100" fill="#1A73E8"/>
  <rect x="350" y="230" width="15" height="80" fill="#1A73E8"/>
  <rect x="415" y="230" width="15" height="80" fill="#1A73E8"/>
  <rect x="365" y="330" width="15" height="40" fill="#4285F4"/>
  <rect x="400" y="330" width="15" height="40" fill="#4285F4"/>
  
  <!-- Doctor's Face -->
  <circle cx="390" cy="180" r="35" fill="#FFDBAC"/>
  <circle cx="380" cy="175" r="5" fill="#333333"/>
  <circle cx="400" cy="175" r="5" fill="#333333"/>
  <path d="M380 195 Q390 205 400 195" stroke="#333333" stroke-width="2" fill="none"/>
  
  <!-- Doctor's Stethoscope -->
  <path d="M415 220 Q440 200 460 220 Q480 240 460 260" stroke="#333333" stroke-width="3" fill="none"/>
  <circle cx="460" cy="260" r="10" fill="#333333"/>
  
  <!-- Patient Figure -->
  <circle cx="490" cy="280" r="30" fill="#FFDBAC"/>
  <rect x="475" y="310" width="30" height="60" fill="#97ADCE"/>
  <rect x="465" y="310" width="10" height="50" fill="#97ADCE"/>
  <rect x="505" y="310" width="10" height="50" fill="#97ADCE"/>
  <rect x="475" y="370" width="10" height="30" fill="#E1E8EF"/>
  <rect x="495" y="370" width="10" height="30" fill="#E1E8EF"/>
  
  <!-- Patient's Face -->
  <circle cx="485" cy="275" r="3" fill="#333333"/>
  <circle cx="495" cy="275" r="3" fill="#333333"/>
  <path d="M485 285 Q490 290 495 285" stroke="#333333" stroke-width="1" fill="none"/>
  
  <!-- Digital Elements -->
  <rect x="300" y="120" width="80" height="120" rx="10" fill="white" stroke="#1A73E8" stroke-width="3"/>
  <rect x="310" y="135" width="60" height="10" rx="2" fill="#4285F4"/>
  <rect x="310" y="155" width="60" height="10" rx="2" fill="#4285F4"/>
  <rect x="310" y="175" width="60" height="10" rx="2" fill="#4285F4"/>
  <rect x="310" y="195" width="60" height="10" rx="2" fill="#4285F4"/>
  <rect x="310" y="215" width="30" height="10" rx="2" fill="#1A73E8"/>
  
  <!-- Connection Lines -->
  <path d="M300 180 L270 210 L250 210" stroke="#1A73E8" stroke-width="2" stroke-dasharray="5,5"/>
  <path d="M380 180 L340 180" stroke="#1A73E8" stroke-width="2" stroke-dasharray="5,5"/>
  
  <!-- Medical Icons -->
  <circle cx="120" y="50" r="20" fill="#1A73E8"/>
  <rect x="115" y="35" width="10" height="30" fill="white"/>
  <rect x="105" y="45" width="30" height="10" fill="white"/>
  
  <circle cx="520" y="100" r="20" fill="#1A73E8"/>
  <rect x="515" y="85" width="10" height="30" fill="white"/>
  <rect x="505" y="95" width="30" height="10" fill="white"/>
  
  <circle cx="520" y="350" r="15" fill="#1A73E8"/>
  <path d="M520 340 L520 360 M510 350 L530 350" stroke="white" stroke-width="3"/>
</svg>